<svg id="Layer_1" data-name="Layer 1" xmlns="http://www.w3.org/2000/svg" viewBox="0 0 48 48"><defs><style>.cls-1{fill:#606161;}</style></defs><title>similar_homes</title><path class="cls-1" d="M30.63,14.2a.47.47,0,0,0-.49.45v1.59a.41.41,0,0,0,.14.31l2,1.78a.5.5,0,0,0,.84-.31V14.65a.47.47,0,0,0-.49-.45Z"/><path class="cls-1" d="M30.14,13.76h2.94a.89.89,0,1,0,0-1.78H30.14a.89.89,0,1,0,0,1.78Z"/><path class="cls-1" d="M35.53,24.42a1.43,1.43,0,0,0,0-2.16L24.27,12l-.91.83a1.6,1.6,0,0,0-.31.22L13,22.23a1.43,1.43,0,0,0,0,2.16,1.77,1.77,0,0,0,2.36,0l.09-.08v11a.71.71,0,0,0,.74.67H32.84a.7.7,0,0,0,.73-.67V24.68A1.77,1.77,0,0,0,35.53,24.42ZM32.1,34.65H16.89V23l7.34-6.71,7.87,7.18Z"/><path class="cls-1" d="M43.54,17.79a.39.39,0,0,0-.41.38V19.5a.37.37,0,0,0,.12.26l1.64,1.48a.42.42,0,0,0,.7-.26V18.17a.4.4,0,0,0-.41-.38Z"/><path class="cls-1" d="M43.13,17.42h2.46a.74.74,0,1,0,0-1.48H43.13a.74.74,0,1,0,0,1.48Z"/><path class="cls-1" d="M13.61,17.42h2.46a.74.74,0,1,0,0-1.48H13.61a.74.74,0,1,0,0,1.48Z"/><path class="cls-1" d="M47.63,24.52l-9.4-8.58-.77.69a2,2,0,0,0-.25.18l-.64.59L35,18.86l-.47.42,2,1.81,1.72-1.57,6.57,6v9.36H34.36V36h11a.59.59,0,0,0,.62-.56V26.54a1.48,1.48,0,0,0,1.63-.21A1.2,1.2,0,0,0,47.63,24.52Z"/><path class="cls-1" d="M3.74,34.86V25.09l6.14-5.61,1.72,1.57,2-1.8L9.91,15.9l-.76.69a1.51,1.51,0,0,0-.26.18L.45,24.48a1.2,1.2,0,0,0,0,1.8,1.49,1.49,0,0,0,2,0l.08-.07v9.21a.58.58,0,0,0,.61.56H14.18V34.86H3.74Z"/></svg>